<mxfile host="Electron" modified="2023-10-21T17:17:21.257Z" agent="Mozilla/5.0 (Windows NT 10.0; Win64; x64) AppleWebKit/537.36 (KHTML, like Gecko) draw.io/22.0.2 Chrome/114.0.5735.289 Electron/25.8.4 Safari/537.36" etag="GH-MLmMsNq_s8UO3rNUd" version="22.0.2" type="device">
  <diagram name="Page-1" id="ZnvQc8AnKRLn6tk11_iB">
    <mxGraphModel dx="1494" dy="1737" grid="1" gridSize="10" guides="1" tooltips="1" connect="1" arrows="1" fold="1" page="1" pageScale="1" pageWidth="1502" pageHeight="1719" math="0" shadow="0">
      <root>
        <mxCell id="0" />
        <mxCell id="1" parent="0" />
        <mxCell id="Gh757pU30lZXkgT6N0OI-64" value="" style="rounded=0;whiteSpace=wrap;html=1;fontStyle=1" parent="1" vertex="1">
          <mxGeometry x="480" y="160" width="560" height="1960" as="geometry" />
        </mxCell>
        <mxCell id="Gh757pU30lZXkgT6N0OI-1" value="User Registration" style="ellipse;whiteSpace=wrap;html=1;fontStyle=1" parent="1" vertex="1">
          <mxGeometry x="700" y="250" width="120" height="80" as="geometry" />
        </mxCell>
        <mxCell id="Gh757pU30lZXkgT6N0OI-2" value="User Login" style="ellipse;whiteSpace=wrap;html=1;fontStyle=1" parent="1" vertex="1">
          <mxGeometry x="700" y="380" width="120" height="80" as="geometry" />
        </mxCell>
        <mxCell id="Gh757pU30lZXkgT6N0OI-3" value="Search for Restaurants" style="ellipse;whiteSpace=wrap;html=1;fontStyle=1" parent="1" vertex="1">
          <mxGeometry x="700" y="510" width="120" height="80" as="geometry" />
        </mxCell>
        <mxCell id="Gh757pU30lZXkgT6N0OI-4" value="&lt;div&gt;Explore Menu&lt;/div&gt;" style="ellipse;whiteSpace=wrap;html=1;fontStyle=1" parent="1" vertex="1">
          <mxGeometry x="700" y="640" width="120" height="80" as="geometry" />
        </mxCell>
        <mxCell id="Gh757pU30lZXkgT6N0OI-5" value="&lt;div style=&quot;border-color: var(--border-color);&quot;&gt;Manage Cart&lt;/div&gt;" style="ellipse;whiteSpace=wrap;html=1;fontStyle=1" parent="1" vertex="1">
          <mxGeometry x="700" y="770" width="120" height="80" as="geometry" />
        </mxCell>
        <mxCell id="Gh757pU30lZXkgT6N0OI-6" value="&lt;div style=&quot;border-color: var(--border-color);&quot;&gt;Place an Order&lt;/div&gt;" style="ellipse;whiteSpace=wrap;html=1;fontStyle=1" parent="1" vertex="1">
          <mxGeometry x="700" y="900" width="120" height="80" as="geometry" />
        </mxCell>
        <mxCell id="Gh757pU30lZXkgT6N0OI-7" value="&lt;div style=&quot;border-color: var(--border-color);&quot;&gt;Track Orders&lt;/div&gt;" style="ellipse;whiteSpace=wrap;html=1;fontStyle=1" parent="1" vertex="1">
          <mxGeometry x="700" y="1030" width="120" height="80" as="geometry" />
        </mxCell>
        <mxCell id="Gh757pU30lZXkgT6N0OI-8" value="&lt;div style=&quot;border-color: var(--border-color);&quot;&gt;Process&amp;nbsp;&lt;/div&gt;&lt;div style=&quot;border-color: var(--border-color);&quot;&gt;Payments&lt;/div&gt;" style="ellipse;whiteSpace=wrap;html=1;fontStyle=1" parent="1" vertex="1">
          <mxGeometry x="700" y="1160" width="120" height="80" as="geometry" />
        </mxCell>
        <mxCell id="Gh757pU30lZXkgT6N0OI-9" value="&lt;div style=&quot;border-color: var(--border-color);&quot;&gt;View&amp;nbsp;&lt;/div&gt;&lt;div style=&quot;border-color: var(--border-color);&quot;&gt;Order&amp;nbsp;&lt;/div&gt;&lt;div style=&quot;border-color: var(--border-color);&quot;&gt;History&lt;/div&gt;" style="ellipse;whiteSpace=wrap;html=1;fontStyle=1" parent="1" vertex="1">
          <mxGeometry x="700" y="1290" width="120" height="80" as="geometry" />
        </mxCell>
        <mxCell id="Gh757pU30lZXkgT6N0OI-10" value="&lt;div style=&quot;border-color: var(--border-color);&quot;&gt;Rate and Review&lt;/div&gt;" style="ellipse;whiteSpace=wrap;html=1;fontStyle=1" parent="1" vertex="1">
          <mxGeometry x="700" y="1420" width="120" height="80" as="geometry" />
        </mxCell>
        <mxCell id="Gh757pU30lZXkgT6N0OI-11" value="&lt;div style=&quot;border-color: var(--border-color);&quot;&gt;Manage Profile&lt;/div&gt;" style="ellipse;whiteSpace=wrap;html=1;fontStyle=1" parent="1" vertex="1">
          <mxGeometry x="700" y="1550" width="120" height="80" as="geometry" />
        </mxCell>
        <mxCell id="Gh757pU30lZXkgT6N0OI-12" value="&lt;div style=&quot;border-color: var(--border-color);&quot;&gt;Access&amp;nbsp;&lt;/div&gt;&lt;div style=&quot;border-color: var(--border-color);&quot;&gt;Customer &lt;br&gt;Support&lt;/div&gt;" style="ellipse;whiteSpace=wrap;html=1;fontStyle=1" parent="1" vertex="1">
          <mxGeometry x="700" y="1680" width="120" height="80" as="geometry" />
        </mxCell>
        <mxCell id="Gh757pU30lZXkgT6N0OI-20" value="&lt;div style=&quot;border-color: var(--border-color);&quot;&gt;Mark&amp;nbsp;&lt;/div&gt;&lt;div style=&quot;border-color: var(--border-color);&quot;&gt;Favorite&amp;nbsp;&lt;/div&gt;&lt;div style=&quot;border-color: var(--border-color);&quot;&gt;Restaurants&lt;/div&gt;" style="ellipse;whiteSpace=wrap;html=1;fontStyle=1" parent="1" vertex="1">
          <mxGeometry x="700" y="1810" width="120" height="80" as="geometry" />
        </mxCell>
        <mxCell id="Gh757pU30lZXkgT6N0OI-21" value="View &lt;br&gt;Promotions &lt;br&gt;and Offers" style="ellipse;whiteSpace=wrap;html=1;fontStyle=1" parent="1" vertex="1">
          <mxGeometry x="700" y="1940" width="120" height="80" as="geometry" />
        </mxCell>
        <mxCell id="Gh757pU30lZXkgT6N0OI-22" value="Customer" style="shape=umlActor;verticalLabelPosition=bottom;verticalAlign=top;html=1;outlineConnect=0;fontStyle=1" parent="1" vertex="1">
          <mxGeometry x="210" y="1020" width="60" height="120" as="geometry" />
        </mxCell>
        <mxCell id="Gh757pU30lZXkgT6N0OI-27" value="" style="endArrow=none;html=1;rounded=0;entryX=0;entryY=0.5;entryDx=0;entryDy=0;fontStyle=1" parent="1" target="Gh757pU30lZXkgT6N0OI-1" edge="1">
          <mxGeometry width="50" height="50" relative="1" as="geometry">
            <mxPoint x="280" y="1080" as="sourcePoint" />
            <mxPoint x="480" y="1000" as="targetPoint" />
          </mxGeometry>
        </mxCell>
        <mxCell id="Gh757pU30lZXkgT6N0OI-28" value="" style="endArrow=none;html=1;rounded=0;entryX=0;entryY=0.5;entryDx=0;entryDy=0;fontStyle=1" parent="1" target="Gh757pU30lZXkgT6N0OI-2" edge="1">
          <mxGeometry width="50" height="50" relative="1" as="geometry">
            <mxPoint x="280" y="1080" as="sourcePoint" />
            <mxPoint x="710" y="300" as="targetPoint" />
          </mxGeometry>
        </mxCell>
        <mxCell id="Gh757pU30lZXkgT6N0OI-29" value="" style="endArrow=none;html=1;rounded=0;entryX=0;entryY=0.5;entryDx=0;entryDy=0;fontStyle=1" parent="1" target="Gh757pU30lZXkgT6N0OI-3" edge="1">
          <mxGeometry width="50" height="50" relative="1" as="geometry">
            <mxPoint x="280" y="1080" as="sourcePoint" />
            <mxPoint x="710" y="430" as="targetPoint" />
          </mxGeometry>
        </mxCell>
        <mxCell id="Gh757pU30lZXkgT6N0OI-30" value="" style="endArrow=none;html=1;rounded=0;entryX=0;entryY=0.5;entryDx=0;entryDy=0;fontStyle=1" parent="1" target="Gh757pU30lZXkgT6N0OI-4" edge="1">
          <mxGeometry width="50" height="50" relative="1" as="geometry">
            <mxPoint x="280" y="1080" as="sourcePoint" />
            <mxPoint x="710" y="560" as="targetPoint" />
          </mxGeometry>
        </mxCell>
        <mxCell id="Gh757pU30lZXkgT6N0OI-31" value="" style="endArrow=none;html=1;rounded=0;entryX=0;entryY=0.5;entryDx=0;entryDy=0;fontStyle=1" parent="1" target="Gh757pU30lZXkgT6N0OI-5" edge="1">
          <mxGeometry width="50" height="50" relative="1" as="geometry">
            <mxPoint x="280" y="1080" as="sourcePoint" />
            <mxPoint x="710" y="690" as="targetPoint" />
          </mxGeometry>
        </mxCell>
        <mxCell id="Gh757pU30lZXkgT6N0OI-32" value="" style="endArrow=none;html=1;rounded=0;entryX=0;entryY=0.5;entryDx=0;entryDy=0;fontStyle=1" parent="1" target="Gh757pU30lZXkgT6N0OI-6" edge="1">
          <mxGeometry width="50" height="50" relative="1" as="geometry">
            <mxPoint x="280" y="1080" as="sourcePoint" />
            <mxPoint x="710" y="820" as="targetPoint" />
          </mxGeometry>
        </mxCell>
        <mxCell id="Gh757pU30lZXkgT6N0OI-33" value="" style="endArrow=none;html=1;rounded=0;entryX=0;entryY=0.5;entryDx=0;entryDy=0;fontStyle=1" parent="1" target="Gh757pU30lZXkgT6N0OI-7" edge="1">
          <mxGeometry width="50" height="50" relative="1" as="geometry">
            <mxPoint x="280" y="1080" as="sourcePoint" />
            <mxPoint x="710" y="950" as="targetPoint" />
          </mxGeometry>
        </mxCell>
        <mxCell id="Gh757pU30lZXkgT6N0OI-34" value="" style="endArrow=none;html=1;rounded=0;entryX=0;entryY=0.5;entryDx=0;entryDy=0;fontStyle=1" parent="1" target="Gh757pU30lZXkgT6N0OI-8" edge="1">
          <mxGeometry width="50" height="50" relative="1" as="geometry">
            <mxPoint x="280" y="1080" as="sourcePoint" />
            <mxPoint x="710" y="1080" as="targetPoint" />
          </mxGeometry>
        </mxCell>
        <mxCell id="Gh757pU30lZXkgT6N0OI-35" value="" style="endArrow=none;html=1;rounded=0;entryX=0;entryY=0.5;entryDx=0;entryDy=0;fontStyle=1" parent="1" target="Gh757pU30lZXkgT6N0OI-9" edge="1">
          <mxGeometry width="50" height="50" relative="1" as="geometry">
            <mxPoint x="280" y="1080" as="sourcePoint" />
            <mxPoint x="710" y="1210" as="targetPoint" />
          </mxGeometry>
        </mxCell>
        <mxCell id="Gh757pU30lZXkgT6N0OI-36" value="" style="endArrow=none;html=1;rounded=0;entryX=0;entryY=0.5;entryDx=0;entryDy=0;fontStyle=1" parent="1" target="Gh757pU30lZXkgT6N0OI-10" edge="1">
          <mxGeometry width="50" height="50" relative="1" as="geometry">
            <mxPoint x="280" y="1080" as="sourcePoint" />
            <mxPoint x="710" y="1340" as="targetPoint" />
          </mxGeometry>
        </mxCell>
        <mxCell id="Gh757pU30lZXkgT6N0OI-37" value="" style="endArrow=none;html=1;rounded=0;entryX=0;entryY=0.5;entryDx=0;entryDy=0;fontStyle=1" parent="1" target="Gh757pU30lZXkgT6N0OI-11" edge="1">
          <mxGeometry width="50" height="50" relative="1" as="geometry">
            <mxPoint x="280" y="1080" as="sourcePoint" />
            <mxPoint x="710" y="1470" as="targetPoint" />
          </mxGeometry>
        </mxCell>
        <mxCell id="Gh757pU30lZXkgT6N0OI-38" value="" style="endArrow=none;html=1;rounded=0;entryX=0;entryY=0.5;entryDx=0;entryDy=0;fontStyle=1" parent="1" target="Gh757pU30lZXkgT6N0OI-12" edge="1">
          <mxGeometry width="50" height="50" relative="1" as="geometry">
            <mxPoint x="280" y="1080" as="sourcePoint" />
            <mxPoint x="710" y="1600" as="targetPoint" />
          </mxGeometry>
        </mxCell>
        <mxCell id="Gh757pU30lZXkgT6N0OI-39" value="" style="endArrow=none;html=1;rounded=0;entryX=0;entryY=0.5;entryDx=0;entryDy=0;fontStyle=1" parent="1" target="Gh757pU30lZXkgT6N0OI-20" edge="1">
          <mxGeometry width="50" height="50" relative="1" as="geometry">
            <mxPoint x="280" y="1080" as="sourcePoint" />
            <mxPoint x="710" y="1730" as="targetPoint" />
          </mxGeometry>
        </mxCell>
        <mxCell id="Gh757pU30lZXkgT6N0OI-40" value="" style="endArrow=none;html=1;rounded=0;entryX=0;entryY=0.5;entryDx=0;entryDy=0;fontStyle=1" parent="1" target="Gh757pU30lZXkgT6N0OI-21" edge="1">
          <mxGeometry width="50" height="50" relative="1" as="geometry">
            <mxPoint x="280" y="1080" as="sourcePoint" />
            <mxPoint x="710" y="1860" as="targetPoint" />
          </mxGeometry>
        </mxCell>
        <mxCell id="Gh757pU30lZXkgT6N0OI-43" value="&lt;font style=&quot;font-size: 14px;&quot;&gt;&amp;lt;&amp;lt;actor&amp;gt;&amp;gt;&lt;br&gt;&lt;/font&gt;&lt;br&gt;&lt;br&gt;&lt;br&gt;&lt;br&gt;&lt;span style=&quot;font-size: 14px;&quot;&gt;&lt;span&gt;Restaurant&lt;/span&gt;&lt;/span&gt;" style="rounded=0;whiteSpace=wrap;html=1;fontStyle=1" parent="1" vertex="1">
          <mxGeometry x="120" y="1525" width="240" height="130" as="geometry" />
        </mxCell>
        <mxCell id="Gh757pU30lZXkgT6N0OI-44" value="&lt;font style=&quot;font-size: 14px;&quot;&gt;&amp;lt;&amp;lt;actor&amp;gt;&amp;gt;&lt;br&gt;&lt;/font&gt;&lt;br&gt;&lt;br&gt;&lt;br&gt;&lt;br&gt;&lt;span&gt;&lt;font style=&quot;font-size: 14px;&quot;&gt;Admin&lt;/font&gt;&lt;/span&gt;" style="rounded=0;whiteSpace=wrap;html=1;fontStyle=1" parent="1" vertex="1">
          <mxGeometry x="1200" y="1135" width="240" height="130" as="geometry" />
        </mxCell>
        <mxCell id="Gh757pU30lZXkgT6N0OI-45" value="Rider" style="shape=umlActor;verticalLabelPosition=bottom;verticalAlign=top;html=1;outlineConnect=0;fontStyle=1" parent="1" vertex="1">
          <mxGeometry x="210" y="556" width="60" height="120" as="geometry" />
        </mxCell>
        <mxCell id="Gh757pU30lZXkgT6N0OI-47" value="" style="endArrow=none;html=1;rounded=0;exitX=1;exitY=0.5;exitDx=0;exitDy=0;entryX=0;entryY=0.5;entryDx=0;entryDy=0;fontStyle=1" parent="1" source="Gh757pU30lZXkgT6N0OI-43" target="Gh757pU30lZXkgT6N0OI-7" edge="1">
          <mxGeometry width="50" height="50" relative="1" as="geometry">
            <mxPoint x="290" y="1090" as="sourcePoint" />
            <mxPoint x="610" y="2030" as="targetPoint" />
          </mxGeometry>
        </mxCell>
        <mxCell id="Gh757pU30lZXkgT6N0OI-51" value="" style="endArrow=none;html=1;rounded=0;entryX=0;entryY=0.5;entryDx=0;entryDy=0;fontStyle=1" parent="1" target="Gh757pU30lZXkgT6N0OI-1" edge="1">
          <mxGeometry width="50" height="50" relative="1" as="geometry">
            <mxPoint x="280" y="620" as="sourcePoint" />
            <mxPoint x="710" y="300" as="targetPoint" />
          </mxGeometry>
        </mxCell>
        <mxCell id="Gh757pU30lZXkgT6N0OI-52" value="" style="endArrow=none;html=1;rounded=0;entryX=0;entryY=0.5;entryDx=0;entryDy=0;fontStyle=1" parent="1" target="Gh757pU30lZXkgT6N0OI-2" edge="1">
          <mxGeometry width="50" height="50" relative="1" as="geometry">
            <mxPoint x="280" y="620" as="sourcePoint" />
            <mxPoint x="710" y="300" as="targetPoint" />
          </mxGeometry>
        </mxCell>
        <mxCell id="Gh757pU30lZXkgT6N0OI-54" value="" style="endArrow=none;html=1;rounded=0;entryX=0;entryY=0.5;entryDx=0;entryDy=0;fontStyle=1" parent="1" target="Gh757pU30lZXkgT6N0OI-7" edge="1">
          <mxGeometry width="50" height="50" relative="1" as="geometry">
            <mxPoint x="280" y="620" as="sourcePoint" />
            <mxPoint x="710" y="950" as="targetPoint" />
          </mxGeometry>
        </mxCell>
        <mxCell id="Gh757pU30lZXkgT6N0OI-55" value="" style="endArrow=none;html=1;rounded=0;entryX=0;entryY=0.5;entryDx=0;entryDy=0;fontStyle=1" parent="1" target="Gh757pU30lZXkgT6N0OI-11" edge="1">
          <mxGeometry width="50" height="50" relative="1" as="geometry">
            <mxPoint x="280" y="620" as="sourcePoint" />
            <mxPoint x="710" y="1080" as="targetPoint" />
          </mxGeometry>
        </mxCell>
        <mxCell id="Gh757pU30lZXkgT6N0OI-56" value="" style="endArrow=none;html=1;rounded=0;entryX=0;entryY=0.5;entryDx=0;entryDy=0;exitX=1;exitY=0.5;exitDx=0;exitDy=0;fontStyle=1" parent="1" source="Gh757pU30lZXkgT6N0OI-11" target="Gh757pU30lZXkgT6N0OI-44" edge="1">
          <mxGeometry width="50" height="50" relative="1" as="geometry">
            <mxPoint x="940" y="1210" as="sourcePoint" />
            <mxPoint x="1100" y="1240" as="targetPoint" />
          </mxGeometry>
        </mxCell>
        <mxCell id="Gh757pU30lZXkgT6N0OI-57" value="" style="endArrow=none;html=1;rounded=0;entryX=0;entryY=0.5;entryDx=0;entryDy=0;exitX=1;exitY=0.5;exitDx=0;exitDy=0;fontStyle=1" parent="1" source="Gh757pU30lZXkgT6N0OI-12" target="Gh757pU30lZXkgT6N0OI-44" edge="1">
          <mxGeometry width="50" height="50" relative="1" as="geometry">
            <mxPoint x="830" y="1600" as="sourcePoint" />
            <mxPoint x="1210" y="1255" as="targetPoint" />
          </mxGeometry>
        </mxCell>
        <mxCell id="Gh757pU30lZXkgT6N0OI-61" value="" style="endArrow=none;html=1;rounded=0;entryX=0;entryY=0.5;entryDx=0;entryDy=0;exitX=1;exitY=0.5;exitDx=0;exitDy=0;fontStyle=1" parent="1" source="Gh757pU30lZXkgT6N0OI-2" target="Gh757pU30lZXkgT6N0OI-44" edge="1">
          <mxGeometry width="50" height="50" relative="1" as="geometry">
            <mxPoint x="830" y="300" as="sourcePoint" />
            <mxPoint x="1210" y="1255" as="targetPoint" />
          </mxGeometry>
        </mxCell>
        <mxCell id="Gh757pU30lZXkgT6N0OI-65" value="&lt;font style=&quot;font-size: 18px;&quot;&gt;&lt;span&gt;Food Panda App&lt;/span&gt;&lt;/font&gt;" style="text;html=1;strokeColor=none;fillColor=none;align=center;verticalAlign=middle;whiteSpace=wrap;rounded=0;fontStyle=1" parent="1" vertex="1">
          <mxGeometry x="500" y="177" width="150" height="30" as="geometry" />
        </mxCell>
      </root>
    </mxGraphModel>
  </diagram>
</mxfile>
